<svg viewBox="0 0 32 32" height="32" width="32" xmlns="http://www.w3.org/2000/svg" xml:space="preserve" style="fill-rule:evenodd;clip-rule:evenodd;stroke-linejoin:round;stroke-miterlimit:2"><path d="M4 20c-.55 0-1.021-.196-1.412-.587A1.927 1.927 0 0 1 2 18V6c0-.55.196-1.021.588-1.413A1.926 1.926 0 0 1 4 4h6l2 2h8c.55 0 1.021.196 1.413.587.391.392.587.863.587 1.413v10a1.93 1.93 0 0 1-.587 1.413A1.93 1.93 0 0 1 20 20H4Zm7-3h8v-.55c0-.75-.367-1.346-1.1-1.787-.733-.442-1.7-.663-2.9-.663s-2.167.221-2.9.663c-.733.441-1.1 1.037-1.1 1.787V17Zm4-4a1.93 1.93 0 0 0 1.413-.587A1.93 1.93 0 0 0 17 11a1.93 1.93 0 0 0-.587-1.413A1.93 1.93 0 0 0 15 9c-.55 0-1.021.196-1.412.587A1.927 1.927 0 0 0 13 11c0 .55.196 1.021.588 1.413.391.391.862.587 1.412.587Z" style="fill-rule:nonzero" transform="matrix(1.4 0 0 1.4 -.8 -.8)"/></svg>