<svg viewBox="0 0 24 24" height="24" width="24" xml:space="preserve" xmlns="http://www.w3.org/2000/svg"><path fill="#fff" d="M20 18H4V8h16m0-2h-8l-2-2H4c-1.11 0-2 .89-2 2v12a2 2 0 0 0 2 2h16a2 2 0 0 0 2-2V8c0-1.11-.9-2-2-2Z"/><path fill="#fff" d="M12 9.4a1.75 1.75 0 0 1 1.75 1.75A1.75 1.75 0 0 1 12 12.9a1.75 1.75 0 0 1-1.75-1.75A1.75 1.75 0 0 1 12 9.4m-3.5 1.25c.28 0 .54.075.765.21-.075.715.135 1.425.565 1.98-.25.48-.75.81-1.33.81a1.5 1.5 0 0 1-1.5-1.5 1.5 1.5 0 0 1 1.5-1.5m7 0a1.5 1.5 0 0 1 1.5 1.5 1.5 1.5 0 0 1-1.5 1.5c-.58 0-1.08-.33-1.33-.81.43-.555.64-1.265.565-1.98.225-.135.485-.21.765-.21m-6.75 5.125c0-1.035 1.455-1.875 3.25-1.875s3.25.84 3.25 1.875v.875h-6.5v-.875M6 16.65v-.75c0-.695.945-1.28 2.225-1.45-.295.34-.475.81-.475 1.325v.875H6m12 0h-1.75v-.875c0-.515-.18-.985-.475-1.325 1.28.17 2.225.755 2.225 1.45Z"/></svg>