<svg viewBox="0 0 24 24" height="24" width="24" xml:space="preserve" xmlns="http://www.w3.org/2000/svg"><path fill="#fff" d="M3.2 3.2A2.2 2.2 0 0 0 1 5.4v13.2a2.2 2.2 0 0 0 2.2 2.2h17.6a2.2 2.2 0 0 0 2.2-2.2v-11a2.2 2.2 0 0 0-2.2-2.2H12L9.8 3.2ZM12 8.13a2.2 2.2 0 0 1 2.2 2.2 2.2 2.2 0 0 1-2.2 2.22 2.2 2.2 0 0 1-2.2-2.21A2.2 2.2 0 0 1 12 8.13ZM7.58 9.7c.36 0 .68.1.97.27-.1.9.17 1.8.71 2.5a1.9 1.9 0 0 1-1.68 1.03 1.9 1.9 0 0 1-1.9-1.9 1.9 1.9 0 0 1 1.9-1.91Zm8.84 0a1.9 1.9 0 0 1 1.9 1.9 1.9 1.9 0 0 1-1.9 1.9 1.9 1.9 0 0 1-1.68-1.03c.55-.7.8-1.6.71-2.5.29-.17.6-.27.97-.27ZM12 13.8c2.27 0 4.1 1.07 4.1 2.38v1.1H7.9v-1.1c0-1.32 1.83-2.38 4.1-2.38zm-4.76.7a2.6 2.6 0 0 0-.6 1.68v1.1h-2.2v-.95c0-.88 1.18-1.61 2.8-1.82zm9.52 0c1.62.22 2.82.95 2.82 1.83v.95h-2.21v-1.1c0-.66-.22-1.24-.6-1.68z" style="stroke-width:1"/></svg>