<svg viewBox="0 0 16 16" height="16" width="16" xmlns="http://www.w3.org/2000/svg" xml:space="preserve" style="fill-rule:evenodd;clip-rule:evenodd;stroke-linejoin:round;stroke-miterlimit:2"><path d="M12 22a9.723 9.723 0 0 1-3.9-.788 10.077 10.077 0 0 1-3.175-2.137c-.9-.9-1.612-1.958-2.137-3.175A9.74 9.74 0 0 1 2 12a9.74 9.74 0 0 1 .788-3.9 10.093 10.093 0 0 1 2.137-3.175c.9-.9 1.958-1.612 3.175-2.138A9.74 9.74 0 0 1 12 2a9.74 9.74 0 0 1 3.9.787 10.113 10.113 0 0 1 3.175 2.138c.9.9 1.613 1.958 2.138 3.175A9.74 9.74 0 0 1 22 12a9.74 9.74 0 0 1-.787 3.9 10.096 10.096 0 0 1-2.138 3.175c-.9.9-1.958 1.613-3.175 2.137A9.723 9.723 0 0 1 12 22Zm0-2c.9 0 1.767-.146 2.6-.437a7.964 7.964 0 0 0 2.3-1.263L5.7 7.1c-.55.7-.971 1.467-1.262 2.3A7.804 7.804 0 0 0 4 12c0 2.233.775 4.125 2.325 5.675C7.875 19.225 9.767 20 12 20Zm6.3-3.1c.55-.7.971-1.467 1.263-2.3.291-.833.437-1.7.437-2.6 0-2.233-.775-4.125-2.325-5.675C16.125 4.775 14.233 4 12 4c-.9 0-1.767.146-2.6.438-.833.291-1.6.712-2.3 1.262l11.2 11.2Z" style="fill-rule:nonzero" transform="matrix(.7 0 0 .7 -.4 -.4)"/></svg>