<svg viewBox="0 0 16 16" height="16" width="16" xmlns="http://www.w3.org/2000/svg" xml:space="preserve" style="fill-rule:evenodd;clip-rule:evenodd;stroke-linejoin:round;stroke-miterlimit:2"><path d="M4 20c-.55 0-1.021-.196-1.412-.587A1.932 1.932 0 0 1 2 18V6c0-.55.196-1.021.588-1.413A1.925 1.925 0 0 1 4 4h6l2 2h8c.55 0 1.021.196 1.413.587.391.392.587.863.587 1.413v10a1.933 1.933 0 0 1-.587 1.413c-.37.382-.881.594-1.413.587H4Zm3.256-5.968c.338 0 .62-.116.849-.35.228-.233.342-.513.342-.84 0-.338-.114-.62-.342-.849a1.154 1.154 0 0 0-.849-.342c-.327 0-.607.114-.84.342-.233.229-.35.511-.35.849 0 .327.117.607.35.84.233.234.513.35.84.35Zm1.191 2.976h7.143v-.967c0-.317-.085-.608-.253-.87a2.283 2.283 0 0 0-.729-.692 3.624 3.624 0 0 0-1.139-.447 6.628 6.628 0 0 0-1.451-.149c-.516 0-.994.05-1.436.149a3.618 3.618 0 0 0-1.138.447 2.357 2.357 0 0 0-.737.692c-.173.262-.26.553-.26.87v.967Zm8.036 0h2.678v-.937c0-.437-.218-.786-.655-1.049-.436-.263-1.011-.395-1.726-.395-.119 0-.235.003-.349.008a2.435 2.435 0 0 0-.335.037c.129.198.225.412.29.64.064.228.097.471.097.729v.967Zm-11.608 0h2.679v-.967c0-.248.035-.486.104-.714.07-.228.174-.447.313-.655a2.484 2.484 0 0 0-.343-.037 8.849 8.849 0 0 0-.372-.008c-.714 0-1.289.134-1.726.402-.436.268-.655.615-.655 1.042v.937Zm7.143-3.571c.506 0 .93-.174 1.273-.521.342-.347.513-.769.513-1.265 0-.506-.171-.93-.513-1.272a1.732 1.732 0 0 0-1.273-.514c-.496 0-.917.172-1.265.514-.347.342-.52.766-.52 1.272 0 .496.173.918.52 1.265.348.347.769.521 1.265.521Zm4.762.595c.338 0 .62-.116.848-.35.229-.233.343-.513.343-.84 0-.338-.114-.62-.343-.849a1.15 1.15 0 0 0-.848-.342c-.327 0-.607.114-.841.342a1.141 1.141 0 0 0-.349.849c0 .327.116.607.349.84.234.234.514.35.841.35Z" style="fill:#0082c9" transform="matrix(.7 0 0 .7 -.4 -.4)"/></svg>